<svg width="150" height="51" viewBox="0 0 150 51" fill="none" xmlns="http://www.w3.org/2000/svg">
<g clip-path="url(#clip0_89_162)">
<path d="M138.055 0.817126H11.9518C11.4922 0.817126 11.038 0.817126 10.5795 0.819626C10.1958 0.822126 9.81509 0.829388 9.42764 0.835501C8.58593 0.845378 7.74619 0.919221 6.91574 1.05639C6.08644 1.19654 5.28312 1.46077 4.53296 1.84014C3.78371 2.22271 3.09911 2.71984 2.50397 3.31346C1.90571 3.90543 1.40701 4.58965 1.02706 5.33983C0.646059 6.08851 0.38187 6.8908 0.24362 7.71898C0.104055 8.54611 0.028954 9.38278 0.0189906 10.2215C0.0073581 10.6047 0.00612966 10.9893 0 11.3726V40.2653C0.00612966 40.6535 0.0073581 41.0295 0.0189906 41.4177C0.0289571 42.2565 0.104058 43.0931 0.24362 43.9201C0.381487 44.7488 0.645693 45.5516 1.02706 46.3005C1.40685 47.0482 1.90561 47.7297 2.50397 48.3183C3.09685 48.9146 3.7819 49.4121 4.53296 49.7917C5.28312 50.1721 6.08635 50.438 6.91574 50.5802C7.74634 50.7163 8.58599 50.7902 9.42764 50.8012C9.81509 50.8097 10.1958 50.8146 10.5795 50.8146C11.038 50.8171 11.4922 50.8171 11.9518 50.8171H138.055C138.505 50.8171 138.964 50.8171 139.414 50.8146C139.796 50.8146 140.188 50.8097 140.569 50.8012C141.41 50.7908 142.247 50.717 143.076 50.5802C143.909 50.437 144.715 50.1712 145.469 49.7917C146.219 49.4118 146.902 48.9145 147.495 48.3183C148.092 47.7275 148.592 47.0465 148.976 46.3005C149.355 45.551 149.616 44.7483 149.753 43.9201C149.893 43.093 149.97 42.2565 149.985 41.4177C149.99 41.0295 149.99 40.6535 149.99 40.2653C150 39.8112 150 39.3596 150 38.8981V12.7373C150 12.2795 150 11.8254 149.99 11.3726C149.99 10.9893 149.99 10.6047 149.985 10.2214C149.97 9.38265 149.893 8.54618 149.753 7.71893C149.616 6.89123 149.355 6.089 148.976 5.33978C148.202 3.83613 146.976 2.61216 145.469 1.84003C144.715 1.46158 143.909 1.19743 143.076 1.05628C142.247 0.918504 141.41 0.844635 140.569 0.835326C140.188 0.829226 139.796 0.821901 139.414 0.819463C138.964 0.816963 138.505 0.816963 138.055 0.816963V0.817126Z" fill="#A6A6A6"/>
<path d="M10.5856 49.7232C10.2037 49.7232 9.83097 49.7183 9.45205 49.7098C8.66708 49.6996 7.88394 49.6315 7.10907 49.506C6.38653 49.3818 5.68659 49.1511 5.03233 48.8211C4.38407 48.4938 3.79279 48.0648 3.28118 47.5503C2.76214 47.042 2.33003 46.4522 2.00195 45.8047C1.67027 45.153 1.44072 44.4543 1.3213 43.7332C1.19234 42.9583 1.12257 42.1748 1.11259 41.3895C1.10464 41.1258 1.09424 40.2481 1.09424 40.2481V11.3724C1.09424 11.3724 1.10532 10.5081 1.11265 10.2542C1.12221 9.47006 1.19158 8.68778 1.32014 7.91413C1.43978 7.19103 1.6695 6.4904 2.00138 5.8365C2.32825 5.18939 2.75797 4.59929 3.27387 4.08906C3.78919 3.57399 4.38234 3.14271 5.03172 2.81098C5.68447 2.48208 6.38309 2.25288 7.10417 2.13105C7.88159 2.00426 8.66744 1.93571 9.45513 1.92598L10.5862 1.91071H139.407L140.552 1.92659C141.332 1.93584 142.111 2.00378 142.881 2.12983C143.61 2.25319 144.316 2.48399 144.976 2.81464C146.277 3.4832 147.336 4.54091 148.004 5.83955C148.33 6.48894 148.556 7.18385 148.674 7.9007C148.805 8.6807 148.877 9.46914 148.892 10.2597C148.896 10.6137 148.896 10.994 148.896 11.3724C148.906 11.8411 148.906 12.2873 148.906 12.7371V38.898C148.906 39.3521 148.906 39.7952 148.896 40.242C148.896 40.6485 148.896 41.0208 148.891 41.4041C148.876 42.1806 148.805 42.955 148.676 43.721C148.56 44.4473 148.331 45.1513 148 45.8085C147.67 46.449 147.24 47.0336 146.726 47.5406C146.215 48.0578 145.622 48.4893 144.972 48.8187C144.314 49.1512 143.609 49.3828 142.881 49.506C142.107 49.6322 141.324 49.7003 140.539 49.7098C140.171 49.7183 139.787 49.7232 139.414 49.7232L138.055 49.7257L10.5856 49.7232Z" fill="black"/>
<path d="M31.0481 26.1936C31.0616 25.1502 31.3395 24.1273 31.856 23.2198C32.3724 22.3125 33.1107 21.55 34.002 21.0035C33.4357 20.1971 32.6887 19.5333 31.8202 19.0652C30.9519 18.597 29.9859 18.3372 28.9991 18.3065C26.8941 18.0861 24.8535 19.5625 23.7809 19.5625C22.6875 19.5625 21.036 18.3283 19.2576 18.3648C18.1072 18.4018 16.9862 18.7355 16.0036 19.333C15.021 19.9306 14.2104 20.7717 13.6507 21.7746C11.2264 25.9601 13.0347 32.1115 15.357 35.4947C16.5189 37.1515 17.8767 39.002 19.6536 38.9363C21.3922 38.8645 22.0416 37.8307 24.1404 37.8307C26.2196 37.8307 26.8289 38.9363 28.6417 38.8946C30.5074 38.8645 31.6829 37.2306 32.804 35.5582C33.6389 34.3777 34.2812 33.0731 34.7074 31.6926C33.6235 31.2353 32.6985 30.4702 32.0477 29.4923C31.397 28.5145 31.0494 27.3672 31.0481 26.1936Z" fill="white"/>
<path d="M27.6237 16.0811C28.641 14.8633 29.1422 13.2981 29.0209 11.7178C27.4667 11.8806 26.0311 12.6213 25.0001 13.7923C24.496 14.3645 24.11 15.03 23.864 15.751C23.618 16.472 23.5169 17.2341 23.5665 17.9941C24.3439 18.0021 25.1129 17.8341 25.8156 17.5027C26.5185 17.1713 27.1366 16.6852 27.6237 16.0811Z" fill="white"/>
<path d="M53.0262 34.7416H47.0928L45.6679 38.9371H43.1548L48.7748 23.4146H51.3859L57.0058 38.9371H54.4498L53.0262 34.7416ZM47.7074 32.8055H52.4105L50.092 25.9965H50.0272L47.7074 32.8055Z" fill="white"/>
<path d="M69.143 33.2788C69.143 36.7956 67.2554 39.0551 64.4069 39.0551C63.6853 39.0928 62.9676 38.9271 62.3361 38.5768C61.7046 38.2267 61.1848 37.7062 60.836 37.0751H60.7821V42.6806H58.4526V27.6196H60.7075V29.502H60.7504C61.1151 28.8738 61.6438 28.3561 62.28 28.0038C62.9164 27.6515 63.6365 27.4778 64.364 27.5012C67.2444 27.5012 69.143 29.7717 69.143 33.2788ZM66.7486 33.2788C66.7486 30.9876 65.5611 29.4812 63.7495 29.4812C61.9696 29.4812 60.7724 31.0192 60.7724 33.2788C60.7724 35.5591 61.9696 37.0862 63.7495 37.0862C65.5613 37.0862 66.7486 35.5908 66.7486 33.2788Z" fill="white"/>
<path d="M81.6342 33.2787C81.6342 36.7956 79.7466 39.0551 76.898 39.0551C76.1765 39.0927 75.4588 38.927 74.8273 38.5768C74.1958 38.2267 73.676 37.7062 73.3272 37.0751H73.2733V42.6806H70.9438V27.6196H73.1987V29.502H73.2415C73.6062 28.8738 74.1348 28.3561 74.7712 28.0038C75.4075 27.6515 76.1277 27.4778 76.8551 27.5012C79.7356 27.5012 81.6342 29.7717 81.6342 33.2787ZM79.2398 33.2787C79.2398 30.9875 78.0523 29.4812 76.2407 29.4812C74.4607 29.4812 73.2636 31.0192 73.2636 33.2787C73.2636 35.5591 74.4607 37.0861 76.2407 37.0861C78.0523 37.0861 79.2398 35.5908 79.2398 33.2787Z" fill="white"/>
<path d="M89.8895 34.6122C90.0621 36.1515 91.5618 37.1622 93.6109 37.1622C95.5744 37.1622 96.987 36.1515 96.987 34.7635C96.987 33.5587 96.135 32.8372 94.1176 32.3428L92.1004 31.8582C89.242 31.1697 87.915 29.8367 87.915 27.6737C87.915 24.9955 90.2555 23.1558 93.579 23.1558C96.8683 23.1558 99.1231 24.9955 99.199 27.6737H96.8475C96.7066 26.1246 95.4226 25.1896 93.546 25.1896C91.6694 25.1896 90.3853 26.1356 90.3853 27.5126C90.3853 28.61 91.2055 29.2557 93.2118 29.7501L94.9268 30.17C98.1205 30.9231 99.4475 32.2025 99.4475 34.473C99.4475 37.377 97.1278 39.1958 93.4383 39.1958C89.9863 39.1958 87.6555 37.4197 87.5049 34.6121L89.8895 34.6122Z" fill="white"/>
<path d="M104.475 24.9417V27.62H106.634V29.4596H104.475V35.6986C104.475 36.6678 104.908 37.1195 105.856 37.1195C106.112 37.115 106.368 37.0971 106.623 37.0657V38.8943C106.196 38.9738 105.763 39.0098 105.329 39.0017C103.031 39.0017 102.135 38.1411 102.135 35.9463V29.4596H100.485V27.62H102.135V24.9417H104.475Z" fill="white"/>
<path d="M107.883 33.2791C107.883 29.7183 109.986 27.4808 113.266 27.4808C116.556 27.4808 118.65 29.7183 118.65 33.2791C118.65 36.8497 116.567 39.0775 113.266 39.0775C109.966 39.0775 107.883 36.8497 107.883 33.2791ZM116.276 33.2791C116.276 30.8365 115.153 29.3948 113.266 29.3948C111.378 29.3948 110.257 30.8475 110.257 33.2791C110.257 35.7315 111.378 37.1622 113.266 37.1622C115.153 37.1622 116.276 35.7315 116.276 33.2791Z" fill="white"/>
<path d="M120.57 27.6195H122.792V29.5457H122.846C122.996 28.9441 123.35 28.4125 123.847 28.0401C124.344 27.6677 124.954 27.4775 125.575 27.5011C125.844 27.5001 126.111 27.5292 126.374 27.5877V29.7606C126.035 29.6573 125.681 29.6098 125.328 29.6202C124.989 29.6065 124.651 29.666 124.338 29.7946C124.025 29.9232 123.743 30.118 123.513 30.3652C123.282 30.6126 123.108 30.9068 123.002 31.2277C122.896 31.5485 122.861 31.8883 122.9 32.224V38.9366H120.57V27.6195Z" fill="white"/>
<path d="M137.114 35.6131C136.801 37.6676 134.795 39.0775 132.228 39.0775C128.926 39.0775 126.876 36.8716 126.876 33.3328C126.876 29.7831 128.938 27.4808 132.13 27.4808C135.27 27.4808 137.244 29.6317 137.244 33.0631V33.859H129.229V33.9993C129.191 34.4158 129.244 34.8355 129.381 35.2302C129.52 35.625 129.741 35.986 130.03 36.2892C130.319 36.5923 130.669 36.8308 131.056 36.9887C131.445 37.1466 131.863 37.2202 132.281 37.2048C132.831 37.2563 133.384 37.1292 133.856 36.8423C134.329 36.5556 134.695 36.1245 134.903 35.6131H137.114ZM129.24 32.2355H134.914C134.934 31.861 134.878 31.4862 134.746 31.1346C134.615 30.7831 134.413 30.4625 134.151 30.1927C133.889 29.9231 133.575 29.7101 133.228 29.5673C132.879 29.4246 132.505 29.3551 132.13 29.3631C131.75 29.3608 131.374 29.4336 131.024 29.577C130.673 29.7203 130.353 29.9317 130.084 30.1987C129.816 30.4658 129.603 30.7832 129.458 31.1328C129.313 31.4823 129.239 31.8571 129.24 32.2355Z" fill="white"/>
<path d="M46.0514 14.8837H47.0516C47.2237 14.9051 47.3984 14.8907 47.5648 14.8413C47.7311 14.7921 47.8853 14.709 48.0178 14.5972C48.1503 14.4856 48.2582 14.3477 48.3346 14.1923C48.4109 14.037 48.4543 13.8676 48.4617 13.6947C48.4617 13.0069 47.9427 12.5625 47.0626 12.5625C46.8862 12.538 46.7067 12.5489 46.5346 12.5946C46.3624 12.6404 46.2013 12.7201 46.0607 12.829C45.9199 12.9379 45.8026 13.0738 45.7154 13.2287C45.6282 13.3836 45.5731 13.5542 45.5532 13.7307H44.4552C44.4741 13.4103 44.5588 13.0973 44.7043 12.8111C44.8498 12.5248 45.0528 12.2715 45.3008 12.0668C45.5487 11.8622 45.8362 11.7106 46.1454 11.6216C46.4547 11.5326 46.7789 11.508 47.0981 11.5494C48.5707 11.5494 49.6076 12.3715 49.6076 13.555C49.6111 13.9515 49.4781 14.3371 49.2307 14.6476C48.9834 14.9581 48.6368 15.1745 48.2488 15.2608V15.3488C48.7088 15.3691 49.1421 15.5703 49.4538 15.9082C49.7656 16.2462 49.9304 16.6936 49.9123 17.1523C49.8783 17.4822 49.7786 17.802 49.6189 18.093C49.4594 18.3838 49.2432 18.6401 48.9831 18.8466C48.7228 19.0531 48.4239 19.2058 48.1038 19.2956C47.7837 19.3855 47.4489 19.4107 47.1189 19.3698C46.7882 19.4147 46.4518 19.3928 46.1298 19.3053C45.8078 19.218 45.5067 19.0667 45.2446 18.8608C44.9823 18.6548 44.7644 18.3983 44.6038 18.1066C44.4432 17.8148 44.3431 17.4938 44.3096 17.1627H45.4247C45.4921 17.8762 46.1494 18.3365 47.1189 18.3365C48.0884 18.3365 48.7213 17.8196 48.7213 17.0908C48.7213 16.3516 48.1251 15.8963 47.0834 15.8963H46.0514V14.8837Z" fill="white"/>
<path d="M51.1792 17.5967C51.1792 16.5836 51.9368 15.9995 53.2786 15.9165L54.8074 15.8286V15.3427C54.8074 14.7482 54.4146 14.4126 53.6519 14.4126C53.0301 14.4126 52.6003 14.6402 52.4754 15.0382H51.3971C51.5109 14.0713 52.4241 13.4512 53.7046 13.4512C55.1196 13.4512 55.9178 14.1537 55.9178 15.3427V19.1886H54.8442V18.3976H54.7561C54.5772 18.6812 54.3259 18.9126 54.0281 19.0678C53.7302 19.2231 53.3963 19.2967 53.0607 19.2813C52.8237 19.3058 52.5842 19.2806 52.3576 19.2072C52.1311 19.1338 51.9223 19.014 51.7451 18.8553C51.5678 18.6966 51.4258 18.5026 51.3284 18.2858C51.2309 18.0691 51.1801 17.8343 51.1792 17.5967ZM54.8074 17.1158V16.6452L53.4291 16.7331C52.6517 16.785 52.2992 17.0486 52.2992 17.5448C52.2992 18.0515 52.7398 18.3462 53.3458 18.3462C53.5234 18.3642 53.7028 18.3463 53.8732 18.2937C54.0437 18.2411 54.2018 18.1548 54.3382 18.04C54.4746 17.9252 54.5864 17.7842 54.6671 17.6255C54.7477 17.4667 54.7954 17.2933 54.8074 17.1158Z" fill="white"/>
<path d="M58.8747 14.495V19.1886H57.7607V13.5598H61.4772V14.4948L58.8747 14.495Z" fill="white"/>
<path d="M68.2282 16.373C68.2282 18.1612 67.321 19.2825 65.8962 19.2825C65.5464 19.3063 65.1972 19.23 64.8894 19.0625C64.5817 18.895 64.3283 18.6433 64.1592 18.3371H64.071V21.0611H62.957V13.5611H64.0294V14.4912H64.1127C64.2848 14.1743 64.5414 13.911 64.8543 13.7303C65.167 13.5497 65.5238 13.4588 65.8852 13.4677C67.321 13.4677 68.2282 14.584 68.2282 16.373ZM67.0824 16.373C67.0824 15.184 66.518 14.4656 65.5743 14.4656C64.6367 14.4656 64.0503 15.1992 64.0503 16.3778C64.0503 17.551 64.6365 18.2852 65.5694 18.2852C66.518 18.2852 67.0824 17.5668 67.0824 16.373Z" fill="white"/>
<path d="M69.7116 21.2046V20.2481C69.8321 20.2633 69.9536 20.2703 70.0751 20.2688C70.3125 20.2863 70.5479 20.216 70.7364 20.071C70.9247 19.926 71.0529 19.7167 71.096 19.4833L71.1792 19.2093L69.1362 13.5598H70.3494L71.7645 18.0307H71.8526L73.2629 13.5598H74.4441L72.3399 19.4211C71.8575 20.7907 71.3239 21.2302 70.1731 21.2302C70.0801 21.2302 69.8156 21.2198 69.7116 21.2046Z" fill="white"/>
<path d="M75.312 17.5913H76.4211C76.53 18.0876 76.9965 18.3463 77.6489 18.3463C78.3908 18.3463 78.8461 18.0205 78.8461 17.5138C78.8461 16.9713 78.4373 16.7125 77.6489 16.7125H76.8043V15.8495H77.6343C78.3075 15.8495 78.6503 15.5913 78.6503 15.1207C78.6503 14.7075 78.3185 14.392 77.6343 14.392C77.0111 14.392 76.5558 14.6556 76.4835 15.1H75.41C75.4903 14.5893 75.7683 14.1306 76.1841 13.8223C76.6001 13.5141 77.1208 13.3808 77.6343 13.4515C78.9759 13.4515 79.7434 14.0562 79.7434 15.0072C79.7496 15.272 79.6645 15.531 79.5024 15.7407C79.3401 15.9505 79.1106 16.0983 78.8523 16.1596V16.2475C79.1599 16.287 79.4423 16.4378 79.6458 16.6713C79.8494 16.9047 79.9599 17.2046 79.9564 17.514C79.9564 18.584 79.0431 19.2918 77.6489 19.2918C76.4161 19.2918 75.4149 18.7285 75.312 17.5913Z" fill="white"/>
<path d="M81.5605 19.1886V13.5598H82.6648V17.4313H82.7529L85.3542 13.5598H86.4583V19.1886H85.3542V15.2963H85.2709L82.6648 19.1886H81.5605Z" fill="white"/>
<path d="M92.5412 14.4961H90.7637V19.1897H89.6486V14.4961H87.8711V13.5611H92.5412V14.4961Z" fill="white"/>
<path d="M98.5418 17.6688C98.3901 18.1832 98.0618 18.6281 97.6146 18.9258C97.1673 19.2235 96.6295 19.355 96.0949 19.2973C95.723 19.3071 95.3534 19.2361 95.0119 19.0891C94.6702 18.9422 94.3648 18.723 94.1167 18.4465C93.8686 18.1701 93.6839 17.8432 93.5752 17.4883C93.4665 17.1336 93.4366 16.7595 93.4875 16.392C93.438 16.0235 93.4683 15.6485 93.5768 15.2926C93.6852 14.9368 93.869 14.6083 94.1159 14.3295C94.3626 14.0507 94.6666 13.828 95.0071 13.6765C95.3477 13.525 95.717 13.4482 96.09 13.4513C97.6605 13.4513 98.6092 14.5213 98.6092 16.2888V16.6765H94.6235V16.7387C94.6057 16.9453 94.6317 17.1533 94.6995 17.3493C94.7672 17.5453 94.8753 17.7251 95.017 17.877C95.1585 18.0288 95.3303 18.1495 95.5215 18.2311C95.7126 18.3128 95.9187 18.3537 96.1267 18.3512C96.393 18.383 96.6627 18.3351 96.9016 18.2136C97.1405 18.092 97.3377 17.9025 97.4684 17.6688H98.5418ZM94.6234 15.855H97.4732C97.4872 15.6661 97.4616 15.4765 97.3977 15.2981C97.334 15.1197 97.2335 14.9567 97.1028 14.8195C96.9721 14.6821 96.814 14.5736 96.6387 14.5008C96.4635 14.428 96.2748 14.3926 96.085 14.3968C95.8923 14.3942 95.701 14.4301 95.5225 14.5025C95.3439 14.5748 95.1817 14.6821 95.0455 14.8181C94.9092 14.954 94.8016 15.1158 94.7292 15.2938C94.6567 15.472 94.6207 15.6627 94.6235 15.855H94.6234Z" fill="white"/>
<path d="M103.264 13.5598H105.809C106.913 13.5598 107.561 14.1177 107.561 14.9911C107.563 15.2682 107.469 15.5376 107.295 15.754C107.122 15.9705 106.879 16.1208 106.607 16.1801V16.268C106.937 16.2887 107.246 16.435 107.471 16.6765C107.695 16.918 107.818 17.2362 107.814 17.5656C107.814 18.5476 107.074 19.1885 105.835 19.1885H103.264V13.5598ZM104.368 14.4126V15.8701H105.473C106.146 15.8701 106.468 15.6118 106.468 15.1358C106.468 14.697 106.187 14.4126 105.596 14.4126H104.368ZM104.368 16.6867V18.3358H105.689C106.348 18.3358 106.7 18.046 106.7 17.5137C106.7 16.9505 106.301 16.6867 105.55 16.6867H104.368Z" fill="white"/>
</g>
<defs>
<clipPath id="clip0_89_162">
<rect width="150" height="50" fill="white" transform="translate(0 0.816963)"/>
</clipPath>
</defs>
</svg>
