<svg width="35" height="35" viewBox="0 0 35 35" fill="none" xmlns="http://www.w3.org/2000/svg">
<g clip-path="url(#clip0_89_141)">
<path d="M16.138 0.57901C16.0118 0.592291 15.62 0.638775 15.2747 0.671978C12.2466 1.00401 9.19189 2.29229 6.68174 4.29776L6.0376 4.81573L9.21182 7.98995L12.386 11.1642L13.0103 11.2638C13.3556 11.3235 13.6411 11.3567 13.6478 11.3501C13.661 11.3368 13.6345 11.1376 13.6013 10.8985C13.3556 9.18526 14.2521 7.13331 16.0317 5.3669C17.1341 4.2712 17.4927 4.25792 18.5286 5.26729C20.3747 7.06026 21.3177 9.15206 21.0653 10.8985C21.0321 11.1376 21.0056 11.3368 21.0188 11.3501C21.0255 11.3567 21.331 11.3169 21.6896 11.2571C22.4997 11.131 24.1731 11.1044 24.5185 11.2239C24.8173 11.3235 25.0696 11.6091 25.1692 11.9478C25.2688 12.313 25.2489 13.754 25.136 14.5177C24.9899 15.4806 24.7907 16.1446 24.4454 16.8419L24.1333 17.4595L24.3923 17.4993C24.7243 17.5524 25.063 17.8778 25.1626 18.2364C25.2688 18.6149 25.2489 20.0493 25.136 20.8263C25.0165 21.6032 24.8837 22.1212 24.6247 22.7521L24.4388 23.2169L27.2478 26.0259L30.0567 28.8349L30.5747 28.1907C33.7091 24.2728 34.9442 19.3255 34.0345 14.3782C33.4169 11.0646 31.7767 7.95674 29.3462 5.52628C26.7165 2.89659 23.4294 1.24971 19.6907 0.69854C19.0532 0.605572 16.6161 0.519243 16.138 0.57901Z" fill="white"/>
<path d="M4.09189 6.88761C0.957517 10.8122 -0.277639 15.7462 0.632126 20.7001C1.02392 22.8251 1.90049 25.0099 3.08252 26.8028C7.56494 33.6161 16.0185 36.3056 23.6353 33.3306C25.0962 32.7595 26.6567 31.8497 27.9782 30.7872L28.629 30.2626L25.9063 27.54L23.1837 24.8173L22.7852 25.1028C21.7825 25.8067 20.1091 26.3048 18.7477 26.3048H18.3294V28.0314C18.3294 29.6384 18.3228 29.7845 18.1966 30.0235C18.0438 30.3224 17.6653 30.5548 17.3267 30.5548C17.0212 30.5548 16.6095 30.2958 16.4634 30.0103C16.3505 29.7845 16.3372 29.5985 16.3372 28.0446V26.3247L15.6599 26.2849C12.5786 26.1122 10.4935 24.5915 9.76963 21.9884C9.45752 20.8728 9.3247 18.947 9.504 18.2298C9.59697 17.8712 9.929 17.5591 10.281 17.4993L10.5333 17.4595L10.2212 16.8419C9.67002 15.7329 9.40439 14.3982 9.44424 12.8575C9.46416 12.0275 9.47744 11.9013 9.61689 11.6689L9.76963 11.4032L7.19306 8.82667L4.60986 6.24347L4.09189 6.88761Z" fill="white"/>
<path d="M16.968 7.25947C16.2242 8.10947 15.7328 9.05908 15.6 9.91572C15.4539 10.8321 15.7926 11.8747 16.5828 12.9239C16.802 13.2161 17.061 13.5282 17.1606 13.6146L17.3332 13.7739L17.5059 13.6146C17.8246 13.329 18.4555 12.4259 18.7012 11.9212C19.0399 11.2106 19.166 10.5333 19.0664 9.91572C18.9735 9.31143 18.7078 8.66064 18.3094 8.06299C17.9774 7.56494 17.4196 6.91416 17.3332 6.91416C17.3 6.91416 17.1407 7.07354 16.968 7.25947Z" fill="white"/>
<path d="M11.4498 13.7474C11.5295 15.0423 11.9545 16.1513 12.6119 16.8153C13.276 17.4794 14.3982 17.9044 15.6932 17.9841L16.3506 18.0239L16.3041 17.5657C16.1514 15.9056 15.7994 14.9892 15.0291 14.2454C14.3916 13.6345 13.2162 13.2228 11.8947 13.1364L11.4033 13.1032L11.4498 13.7474Z" fill="white"/>
<path d="M22.4797 13.163C20.2883 13.3622 19.0266 14.3318 18.5618 16.1845C18.4688 16.5564 18.336 17.5392 18.3293 17.931C18.3293 18.0638 19.4516 17.9841 20.1555 17.8048C21.7493 17.3997 22.6458 16.5099 23.0442 14.9228C23.2235 14.2122 23.3032 13.0833 23.1704 13.0966C23.1172 13.1032 22.8118 13.1298 22.4797 13.163Z" fill="white"/>
<path d="M11.4432 20.056C11.5959 22.3204 12.5787 23.622 14.5111 24.1134C15.1619 24.2794 16.3373 24.3724 16.3373 24.2529C16.3373 24.213 16.3041 23.8876 16.2709 23.529C16.1248 22.2341 15.733 21.2579 15.0955 20.6138C14.4447 19.9697 13.2959 19.5447 11.8947 19.4384L11.4033 19.4052L11.4432 20.056Z" fill="white"/>
<path d="M22.4797 19.4716C21.6829 19.5446 21.0786 19.704 20.4676 20.0028C19.2458 20.5938 18.595 21.7028 18.3958 23.529C18.3625 23.8876 18.3293 24.213 18.3293 24.2528C18.3293 24.3126 18.502 24.3192 19.0133 24.2927C21.6364 24.1333 23.0442 22.7122 23.2235 20.0493C23.2633 19.4384 23.2567 19.3985 23.1372 19.4052C23.0708 19.4118 22.7719 19.4384 22.4797 19.4716Z" fill="white"/>
</g>
<defs>
<clipPath id="clip0_89_141">
<rect width="34" height="34" fill="white" transform="translate(0.333252 0.539185)"/>
</clipPath>
</defs>
</svg>
