<svg width="35" height="35" viewBox="0 0 35 35" fill="none" xmlns="http://www.w3.org/2000/svg">
<g clip-path="url(#clip0_89_130)">
<path d="M24.4402 0.638794C22.9593 0.857935 21.6976 1.36262 20.4292 2.24582C20.0441 2.51809 18.7824 3.72668 15.9203 6.57551L11.9558 10.5333L16.1527 14.7368L20.3562 18.9337L20.8343 18.5751C23.3578 16.6759 26.7246 16.1181 29.7062 17.1075C30.0781 17.2271 30.43 17.3466 30.4898 17.3665C30.5628 17.3997 30.8683 17.1075 31.5789 16.3306C32.7675 15.0224 33.1527 14.5177 33.5976 13.6876C34.2816 12.3993 34.6136 11.0181 34.6136 9.50403C34.6136 8.01653 34.3082 6.70832 33.6507 5.42668C31.9175 2.03996 28.1589 0.0809803 24.4402 0.638794Z" fill="white"/>
<path d="M6.66993 15.8259C2.26055 20.2552 1.99493 20.574 1.3375 22.2208C0.201957 25.0497 0.600395 28.3036 2.37344 30.7673C4.32579 33.4767 7.69258 34.9111 10.993 34.4396C12.5137 34.2271 13.9148 33.6493 15.1102 32.7529C15.3293 32.5935 15.9602 32.0158 16.5113 31.4712L17.5141 30.4818L17.2617 29.738C16.591 27.7857 16.5711 25.5876 17.1887 23.6154C17.4809 22.699 18.0453 21.5966 18.643 20.7865L18.9418 20.3747L14.7316 16.1646L10.5215 11.9611L6.66993 15.8259Z" fill="white"/>
<path d="M25.2039 18.7743C21.3722 19.5779 18.7292 22.7521 18.7292 26.5704C18.7292 28.1974 19.2406 29.8111 20.1769 31.1458C20.582 31.7302 21.5781 32.7064 22.1492 33.0849C23.1054 33.7224 24.4535 34.2669 25.3566 34.3798L25.7019 34.4263V26.5771V18.7345L25.5226 18.7411C25.4164 18.7478 25.2769 18.7611 25.2039 18.7743Z" fill="white"/>
<path d="M27.6941 26.5771V34.4196L28.0128 34.3798C29.5402 34.1607 31.2136 33.2775 32.3757 32.0755C33.0664 31.3583 33.4117 30.8802 33.83 30.0368C34.3746 28.9611 34.6203 27.8853 34.6203 26.5704C34.6203 25.2556 34.3746 24.1798 33.83 23.104C33.425 22.2872 33.073 21.7892 32.4488 21.1318C31.3398 19.9763 30.0582 19.2325 28.5242 18.8607C28.232 18.7943 27.9265 18.7345 27.8468 18.7345H27.6941V26.5771Z" fill="white"/>
</g>
<defs>
<clipPath id="clip0_89_130">
<rect width="34" height="34" fill="white" transform="translate(0.666748 0.539185)"/>
</clipPath>
</defs>
</svg>
