<svg width="150" height="46" viewBox="0 0 150 46" fill="none" xmlns="http://www.w3.org/2000/svg">
<g clip-path="url(#clip0_89_186)">
<path d="M144.444 0.816963H5.55556C2.48731 0.816963 0 3.30427 0 6.37252V39.7058C0 42.7741 2.48731 45.2614 5.55556 45.2614H144.444C147.512 45.2614 150 42.7741 150 39.7058V6.37252C150 3.30427 147.512 0.816963 144.444 0.816963Z" fill="black"/>
<path d="M144.444 1.70585C145.682 1.70585 146.869 2.19752 147.744 3.07269C148.62 3.94785 149.111 5.13484 149.111 6.37252V39.7058C149.111 40.9435 148.62 42.1305 147.744 43.0056C146.869 43.8808 145.682 44.3725 144.444 44.3725H5.55556C4.31788 44.3725 3.13089 43.8808 2.25572 43.0056C1.38056 42.1305 0.888889 40.9435 0.888889 39.7058V6.37252C0.888889 5.13484 1.38056 3.94785 2.25572 3.07269C3.13089 2.19752 4.31788 1.70585 5.55556 1.70585H144.444ZM144.444 0.816963H5.55556C4.08213 0.816963 2.66906 1.40228 1.62719 2.44415C0.585316 3.48602 0 4.8991 0 6.37252V39.7058C0 41.1793 0.585316 42.5924 1.62719 43.6342C2.66906 44.6761 4.08213 45.2614 5.55556 45.2614H144.444C145.918 45.2614 147.331 44.6761 148.373 43.6342C149.414 42.5924 150 41.1793 150 39.7058V6.37252C150 4.8991 149.414 3.48602 148.373 2.44415C147.331 1.40228 145.918 0.816963 144.444 0.816963Z" fill="#A6A6A6"/>
<path d="M75.7113 24.9835C74.7752 24.9857 73.8607 25.2655 73.0835 25.7874C72.3063 26.3094 71.7014 27.0501 71.3452 27.9157C70.989 28.7815 70.8974 29.7334 71.0822 30.6512C71.267 31.569 71.7198 32.4113 72.3833 33.0717C73.0469 33.7321 73.8913 34.181 74.8099 34.3614C75.7285 34.5419 76.68 34.446 77.5441 34.0856C78.4081 33.7253 79.146 33.117 79.6642 32.3373C80.1825 31.5577 80.458 30.642 80.4558 29.7057C80.4649 29.0813 80.3481 28.4613 80.1127 27.8829C79.8771 27.3043 79.5277 26.7792 79.085 26.3385C78.6422 25.898 78.1154 25.551 77.5359 25.3181C76.9563 25.0853 76.3358 24.9715 75.7113 24.9835ZM75.7113 32.5724C75.1375 32.6125 74.5649 32.4792 74.068 32.1895C73.571 31.9 73.1727 31.4675 72.9247 30.9485C72.6768 30.4294 72.5907 29.8479 72.6777 29.2793C72.7647 28.7106 73.0207 28.1814 73.4124 27.7603C73.8042 27.3391 74.3135 27.0455 74.8744 26.9177C75.4352 26.79 76.0215 26.8339 76.5571 27.0436C77.0927 27.2535 77.5527 27.6195 77.8774 28.0943C78.2022 28.5691 78.3765 29.1305 78.378 29.7057C78.3959 30.0702 78.3407 30.4346 78.2154 30.7773C78.0903 31.1201 77.8978 31.4343 77.6492 31.7015C77.4008 31.9687 77.1012 32.1834 76.7683 32.333C76.4355 32.4825 76.0761 32.564 75.7113 32.5724ZM65.3558 24.9835C64.4197 24.9857 63.5051 25.2655 62.728 25.7874C61.9508 26.3094 61.3459 27.0501 60.9897 27.9157C60.6334 28.7815 60.5419 29.7334 60.7267 30.6512C60.9114 31.569 61.3642 32.4113 62.0278 33.0717C62.6913 33.7321 63.5358 34.181 64.4543 34.3614C65.373 34.5419 66.3244 34.446 67.1885 34.0856C68.0525 33.7253 68.7904 33.117 69.3087 32.3373C69.827 31.5577 70.1024 30.642 70.1002 29.7057C70.1092 29.0813 69.9925 28.4613 69.7571 27.8829C69.5215 27.3043 69.1721 26.7792 68.7294 26.3385C68.2867 25.898 67.7599 25.551 67.1803 25.3181C66.6008 25.0853 65.9802 24.9715 65.3558 24.9835ZM65.3558 32.5724C64.782 32.6125 64.2093 32.4792 63.7124 32.1895C63.2154 31.9 62.8171 31.4675 62.5691 30.9485C62.3212 30.4294 62.2351 29.8479 62.3221 29.2793C62.4091 28.7106 62.6651 28.1814 63.0569 27.7603C63.4487 27.3391 63.958 27.0455 64.5189 26.9177C65.0797 26.79 65.666 26.8339 66.2015 27.0436C66.7371 27.2535 67.1971 27.6195 67.5219 28.0943C67.8467 28.5691 68.021 29.1305 68.0224 29.7057C68.0403 30.0702 67.9851 30.4346 67.8599 30.7773C67.7348 31.1201 67.5422 31.4343 67.2937 31.7015C67.0452 31.9687 66.7457 32.1834 66.4128 32.333C66.08 32.4825 65.7205 32.564 65.3558 32.5724ZM53.0447 26.4391V28.4391H57.8447C57.7694 29.3811 57.3778 30.27 56.7335 30.9613C56.2521 31.4518 55.673 31.836 55.0337 32.0885C54.3944 32.3412 53.7092 32.4569 53.0224 32.428C51.608 32.428 50.2514 31.8661 49.2512 30.8659C48.251 29.8657 47.6891 28.5092 47.6891 27.0946C47.6891 25.6802 48.251 24.3236 49.2512 23.3234C50.2514 22.3232 51.608 21.7613 53.0224 21.7613C54.3784 21.7412 55.6879 22.2561 56.6669 23.1946L58.078 21.7835C57.4158 21.1285 56.6294 20.6123 55.7652 20.2651C54.9009 19.9178 53.976 19.7465 53.0447 19.7613C52.0569 19.7228 51.0716 19.8842 50.1476 20.2357C49.2237 20.5872 48.3802 21.1216 47.6678 21.8068C46.9552 22.4922 46.3884 23.3142 46.0013 24.2237C45.6142 25.1333 45.4146 26.1116 45.4146 27.1002C45.4146 28.0887 45.6142 29.0671 46.0013 29.9766C46.3884 30.8862 46.9552 31.7083 47.6678 32.3935C48.3802 33.0788 49.2237 33.6132 50.1476 33.9647C51.0716 34.3162 52.0569 34.4775 53.0447 34.4391C53.9951 34.4771 54.9429 34.3135 55.8257 33.9593C56.7084 33.605 57.5063 33.068 58.1669 32.3835C59.3337 31.1017 59.9554 29.416 59.9002 27.6835C59.9042 27.2665 59.8708 26.8501 59.8002 26.4391H53.0447ZM103.389 27.9946C103.099 27.1422 102.557 26.3977 101.835 25.8601C101.113 25.3223 100.244 25.0166 99.3447 24.9835C98.7369 24.9824 98.1353 25.1059 97.5771 25.3464C97.019 25.5869 96.5161 25.9393 96.0995 26.382C95.683 26.8245 95.3617 27.3478 95.1553 27.9195C94.9491 28.4912 94.8622 29.0992 94.9002 29.7057C94.8908 30.7201 95.2095 31.7102 95.8092 32.5283C96.4089 33.3464 97.2571 33.9485 98.2272 34.2449C99.1972 34.5411 100.237 34.5156 101.192 34.1721C102.146 33.8286 102.964 33.1856 103.522 32.3391L101.911 31.228C101.671 31.6283 101.331 31.9589 100.923 32.1869C100.516 32.415 100.056 32.5325 99.5891 32.528C99.1075 32.5478 98.6312 32.4216 98.2227 32.1659C97.8142 31.91 97.4925 31.5366 97.3002 31.0946L103.622 28.4835L103.389 27.9946ZM96.9447 29.5724C96.9221 29.2273 96.9687 28.8812 97.0817 28.5542C97.1945 28.2273 97.3716 27.9262 97.6023 27.6685C97.8331 27.411 98.1129 27.2019 98.4254 27.0537C98.738 26.9056 99.0769 26.8213 99.4224 26.8057C99.7804 26.784 100.137 26.8682 100.447 27.0481C100.758 27.228 101.008 27.4954 101.167 27.8169L96.9447 29.5724ZM91.8113 34.1502H93.8891V20.2613H91.8113V34.1502ZM88.4113 26.0391H88.3335C88.0231 25.6856 87.6401 25.4033 87.2105 25.2115C86.781 25.0197 86.3151 24.9231 85.8447 24.928C84.6304 24.9868 83.4853 25.5106 82.6469 26.3909C81.8083 27.2711 81.3405 28.4401 81.3405 29.6557C81.3405 30.8714 81.8083 32.0405 82.6469 32.9206C83.4853 33.8008 84.6304 34.3246 85.8447 34.3835C86.3158 34.393 86.7831 34.2983 87.2133 34.1062C87.6435 33.9142 88.0261 33.6294 88.3335 33.2724H88.4113V33.9502C88.4113 35.7613 87.4447 36.728 85.8891 36.728C85.3694 36.7165 84.8649 36.551 84.4395 36.2523C84.0142 35.9535 83.6873 35.5352 83.5002 35.0502L81.7002 35.7946C82.033 36.6305 82.6117 37.3456 83.3595 37.8456C84.1074 38.3455 84.9896 38.6067 85.8891 38.5946C88.3224 38.5946 90.3335 37.1613 90.3335 33.6724V25.2613H88.4113V26.0391ZM86.0224 32.5724C85.2944 32.5271 84.6111 32.2059 84.1117 31.6743C83.6122 31.1427 83.3341 30.4407 83.3341 29.7113C83.3341 28.982 83.6122 28.28 84.1117 27.7484C84.6111 27.2167 85.2944 26.8956 86.0224 26.8502C86.3782 26.8655 86.7273 26.9523 87.049 27.1054C87.3705 27.2584 87.6581 27.4745 87.8944 27.741C88.1308 28.0074 88.3111 28.3186 88.4248 28.6562C88.5383 28.9937 88.5829 29.3506 88.5558 29.7057C88.5861 30.0621 88.5438 30.4209 88.4315 30.7604C88.3192 31.0999 88.1392 31.4131 87.9024 31.6811C87.6655 31.9491 87.3769 32.1662 87.0538 32.3194C86.7307 32.4726 86.3798 32.5587 86.0224 32.5724ZM113.122 20.2613H108.145V34.1502H110.222V28.8835H113.122C113.715 28.9261 114.309 28.8462 114.869 28.6489C115.429 28.4514 115.942 28.1409 116.377 27.7363C116.811 27.3319 117.158 26.8422 117.395 26.2979C117.632 25.7534 117.755 25.1661 117.755 24.5724C117.755 23.9787 117.632 23.3914 117.395 22.8471C117.158 22.3027 116.811 21.8131 116.377 21.4085C115.942 21.0041 115.429 20.6934 114.869 20.4961C114.309 20.2987 113.715 20.2187 113.122 20.2613ZM113.122 26.928H110.222V22.1946H113.167C113.479 22.1946 113.788 22.2562 114.077 22.3756C114.366 22.4952 114.628 22.6703 114.848 22.8911C115.069 23.1118 115.245 23.374 115.363 23.6625C115.483 23.951 115.545 24.2602 115.545 24.5724C115.545 24.8847 115.483 25.1939 115.363 25.4824C115.245 25.7709 115.069 26.033 114.848 26.2537C114.628 26.4745 114.366 26.6497 114.077 26.7692C113.788 26.8887 113.479 26.9502 113.167 26.9502L113.122 26.928ZM125.945 24.9391C125.188 24.8924 124.435 25.0686 123.777 25.4457C123.119 25.823 122.587 26.3846 122.245 27.0613L124.078 27.828C124.263 27.494 124.541 27.2207 124.878 27.0414C125.216 26.862 125.598 26.784 125.978 26.8169C126.241 26.7861 126.509 26.8081 126.765 26.8816C127.019 26.9553 127.257 27.079 127.465 27.2454C127.671 27.412 127.842 27.618 127.969 27.8515C128.096 28.0851 128.173 28.3415 128.2 28.6057V28.7391C127.532 28.3878 126.788 28.2049 126.033 28.2057C124.056 28.2057 122.033 29.3168 122.033 31.3391C122.053 31.769 122.159 32.1904 122.345 32.5786C122.53 32.9667 122.792 33.3136 123.115 33.5986C123.437 33.8837 123.813 34.1011 124.221 34.2377C124.629 34.3745 125.06 34.4279 125.489 34.3946C126.01 34.4235 126.53 34.3132 126.995 34.075C127.46 33.8367 127.852 33.4793 128.133 33.0391H128.2V34.1502H130.2V28.8057C130.2 26.3724 128.356 24.9613 125.989 24.9613L125.945 24.9391ZM125.689 32.5502C125.011 32.5502 124.067 32.2057 124.067 31.3724C124.067 30.2613 125.245 29.8835 126.289 29.8835C126.949 29.8673 127.601 30.0284 128.178 30.3502C128.108 30.9536 127.822 31.5113 127.372 31.9198C126.923 32.3285 126.341 32.5603 125.733 32.5724L125.689 32.5502ZM137.489 25.2613L135.111 31.2835H135.045L132.578 25.2613H130.356L134.056 33.6835L131.945 38.3613H134.111L139.8 25.2613H137.489ZM118.822 34.1502H120.889V20.2613H118.822V34.1502Z" fill="white"/>
<path d="M11.6002 9.19444C11.2341 9.62735 11.0473 10.1838 11.078 10.75V35.3277C11.0402 35.8948 11.2279 36.454 11.6002 36.8833L11.678 36.9722L25.4447 23.2055V22.8722L11.678 9.11666L11.6002 9.19444Z" fill="url(#paint0_linear_89_186)"/>
<path d="M29.9999 27.7944L25.4443 23.2055V22.8722L29.9999 18.2833L30.0999 18.35L35.5554 21.4388C37.111 22.3166 37.111 23.7611 35.5554 24.65L30.1221 27.7388L29.9999 27.7944Z" fill="url(#paint1_linear_89_186)"/>
<path d="M30.1334 27.7281L25.4445 23.0392L11.6001 36.8836C11.9141 37.1631 12.316 37.3238 12.7361 37.3381C13.1562 37.3523 13.568 37.2191 13.9001 36.9614L30.1334 27.7281Z" fill="url(#paint2_linear_89_186)"/>
<path d="M30.1334 18.3509L13.9001 9.12858C13.5702 8.86737 13.1587 8.73086 12.738 8.74306C12.3173 8.75525 11.9144 8.91537 11.6001 9.19525L25.4445 23.0397L30.1334 18.3509Z" fill="url(#paint3_linear_89_186)"/>
<path opacity="0.2" d="M30.0001 27.628L13.9001 36.7946C13.5801 37.0362 13.19 37.1669 12.789 37.1669C12.3881 37.1669 11.998 37.0362 11.6779 36.7946L11.6001 36.8724L11.6779 36.9613C11.998 37.2028 12.3881 37.3335 12.789 37.3335C13.19 37.3335 13.5801 37.2028 13.9001 36.9613L30.1334 27.728L30.0001 27.628Z" fill="black"/>
<path opacity="0.12" d="M11.5998 36.7283C11.2429 36.2875 11.068 35.7271 11.1109 35.1616V35.3283C11.0731 35.8953 11.2608 36.4544 11.6331 36.8839L11.7109 36.8061L11.5998 36.7283Z" fill="black"/>
<path opacity="0.12" d="M35.5556 24.4836L30 27.6281L30.1 27.7281L35.5556 24.6392C35.8776 24.503 36.157 24.2825 36.3642 24.001C36.5714 23.7194 36.699 23.3872 36.7333 23.0392C36.6639 23.3554 36.5211 23.6509 36.3166 23.9017C36.1119 24.1526 35.8513 24.352 35.5556 24.4836Z" fill="black"/>
<path opacity="0.25" d="M13.9003 9.28361L35.5559 21.5947C35.8517 21.7264 36.1123 21.9257 36.3169 22.1766C36.5214 22.4275 36.6642 22.723 36.7337 23.0392C36.6993 22.6912 36.5719 22.359 36.3646 22.0774C36.1573 21.7959 35.8779 21.5753 35.5559 21.4392L13.9003 9.12805C12.3559 8.23916 11.0781 8.9725 11.0781 10.7503V10.9169C11.1114 9.13916 12.3559 8.40583 13.9003 9.28361Z" fill="white"/>
<path d="M46.7886 16.6725H45.9775V14.4503H46.6664C46.9763 14.1139 47.2094 13.714 47.3495 13.2784C47.4895 12.843 47.5332 12.3822 47.4775 11.9281V8.59474H51.922V14.4392H52.6664V16.6614H51.8442V15.2614H46.7886V16.6725ZM48.3331 11.9281C48.3826 12.8206 48.162 13.7074 47.6998 14.4725H51.0331V9.41696H48.3331V11.9281Z" fill="white" stroke="white" stroke-width="0.2" stroke-miterlimit="10"/>
<path d="M59.3444 14.3949C59.0244 14.7156 58.6443 14.9702 58.2257 15.1439C57.8073 15.3176 57.3586 15.407 56.9055 15.407C56.4524 15.407 56.0037 15.3176 55.5852 15.1439C55.1666 14.9702 54.7865 14.7156 54.4666 14.3949C53.831 13.731 53.4761 12.8473 53.4761 11.9282C53.4761 11.009 53.831 10.1254 54.4666 9.4615C54.7865 9.14066 55.1666 8.88611 55.5852 8.71243C56.0037 8.53874 56.4524 8.44934 56.9055 8.44934C57.3586 8.44934 57.8073 8.53874 58.2257 8.71243C58.6443 8.88611 59.0244 9.14066 59.3444 9.4615C59.6653 9.78594 59.9182 10.1713 60.0881 10.5949C60.2579 11.0185 60.3412 11.4718 60.3333 11.9282C60.3464 12.3852 60.2654 12.84 60.0953 13.2643C59.9252 13.6886 59.6695 14.0735 59.3444 14.3949ZM55.0889 13.8393C55.323 14.0824 55.6045 14.275 55.916 14.405C56.2275 14.5349 56.5624 14.5995 56.9 14.5949C57.2377 14.6015 57.5732 14.5379 57.8851 14.4077C58.1969 14.2776 58.4782 14.0841 58.7111 13.8393C59.1905 13.3183 59.4566 12.6362 59.4566 11.9282C59.4566 11.2202 59.1905 10.538 58.7111 10.0171C58.4782 9.77228 58.1969 9.57868 57.8851 9.44861C57.5732 9.31853 57.2377 9.25481 56.9 9.2615C56.5624 9.25682 56.2275 9.32145 55.916 9.45142C55.6045 9.58137 55.323 9.7739 55.0889 10.0171C54.6164 10.5415 54.355 11.2223 54.355 11.9282C54.355 12.634 54.6164 13.3149 55.0889 13.8393Z" fill="white" stroke="white" stroke-width="0.2" stroke-miterlimit="10"/>
<path d="M64.6447 15.4063C64.1952 15.4133 63.7489 15.3294 63.3326 15.1594C62.9163 14.9894 62.5387 14.7371 62.2225 14.4174C61.5814 13.7474 61.2236 12.8558 61.2236 11.9285C61.2236 11.0012 61.5814 10.1096 62.2225 9.43961C62.544 9.11443 62.9287 8.85884 63.3531 8.68872C63.7774 8.51859 64.2322 8.43758 64.6892 8.45072C65.1544 8.43755 65.6164 8.53082 66.0401 8.72337C66.4636 8.91594 66.8377 9.20272 67.1336 9.56183L66.5447 10.1396C66.3265 9.85896 66.0441 9.63478 65.7212 9.48592C65.3983 9.33704 65.0444 9.26782 64.6892 9.28405C64.3472 9.27533 64.0071 9.33689 63.6897 9.46494C63.3725 9.59299 63.085 9.7848 62.8447 10.0285C62.3662 10.5543 62.101 11.2397 62.101 11.9507C62.101 12.6617 62.3662 13.3472 62.8447 13.873C63.085 14.1166 63.3725 14.3084 63.6897 14.4365C64.0071 14.5645 64.3472 14.6261 64.6892 14.6174C65.071 14.6065 65.4459 14.5124 65.7874 14.3416C66.1291 14.1707 66.4293 13.9274 66.667 13.6285L67.267 14.2174C66.9626 14.5822 66.5837 14.8776 66.1559 15.0841C65.6832 15.3048 65.1664 15.4151 64.6447 15.4063Z" fill="white" stroke="white" stroke-width="0.2" stroke-miterlimit="10"/>
<path d="M70.7554 15.2614H69.8999V9.41696H68.0332V8.59474H72.611V9.41696H70.7554V15.2614Z" fill="white" stroke="white" stroke-width="0.2" stroke-miterlimit="10"/>
<path d="M78.5003 8.59474L75.9781 14.217C75.917 14.4424 75.8075 14.6519 75.6573 14.8307C75.5072 15.0096 75.32 15.1537 75.1085 15.2531C74.8972 15.3524 74.6668 15.4046 74.4332 15.4061C74.1995 15.4075 73.9685 15.3582 73.7559 15.2614L73.9781 14.4725C74.1141 14.549 74.2667 14.5909 74.4225 14.5947C74.587 14.603 74.75 14.5603 74.8892 14.4725C75.0242 14.3602 75.1276 14.2147 75.1892 14.0503L75.4336 13.517L73.2114 8.59474H74.2225L75.867 12.417L77.4892 8.59474H78.5003Z" fill="white" stroke="white" stroke-width="0.2" stroke-miterlimit="10"/>
<path d="M79.4668 15.2614V8.59474H84.289V15.2614H83.4335V9.41696H80.3224V15.2614H79.4668Z" fill="white" stroke="white" stroke-width="0.2" stroke-miterlimit="10"/>
<path d="M85.811 15.2614V8.59474H86.6666V11.4503H89.9999V8.59474H90.8666V15.2614H89.9999V12.2503H86.6666V15.2614H85.811Z" fill="white" stroke="white" stroke-width="0.2" stroke-miterlimit="10"/>
<path d="M97.8447 14.3949C97.5238 14.716 97.1427 14.9709 96.7232 15.1446C96.3038 15.3185 95.8542 15.408 95.4002 15.408C94.9462 15.408 94.4967 15.3185 94.0772 15.1446C93.6578 14.9709 93.2767 14.716 92.9558 14.3949C92.3201 13.731 91.9653 12.8473 91.9653 11.9282C91.9653 11.009 92.3201 10.1254 92.9558 9.4615C93.2758 9.14066 93.6559 8.88611 94.0743 8.71243C94.4929 8.53874 94.9416 8.44934 95.3947 8.44934C95.8478 8.44934 96.2964 8.53874 96.715 8.71243C97.1334 8.88611 97.5136 9.14066 97.8336 9.4615C98.4642 10.128 98.8156 11.0106 98.8156 11.9282C98.8156 12.8457 98.4642 13.7284 97.8336 14.3949H97.8447ZM93.5891 13.8393C93.822 14.0841 94.1033 14.2776 94.4151 14.4077C94.7269 14.5379 95.0624 14.6015 95.4002 14.5949C95.7378 14.5995 96.0727 14.5349 96.3841 14.405C96.6957 14.275 96.9772 14.0824 97.2113 13.8393C97.6837 13.3149 97.9451 12.634 97.9451 11.9282C97.9451 11.2223 97.6837 10.5415 97.2113 10.0171C96.9772 9.7739 96.6957 9.58137 96.3841 9.45142C96.0727 9.32145 95.7378 9.25682 95.4002 9.2615C95.0624 9.25481 94.7269 9.31853 94.4151 9.44861C94.1033 9.57868 93.822 9.77228 93.5891 10.0171C93.1097 10.538 92.8436 11.2202 92.8436 11.9282C92.8436 12.6362 93.1097 13.3183 93.5891 13.8393Z" fill="white" stroke="white" stroke-width="0.2" stroke-miterlimit="10"/>
<path d="M102.322 15.2615V8.59484H104.733C105.233 8.58983 105.716 8.77216 106.089 9.10595C106.274 9.26708 106.422 9.46704 106.522 9.69169C106.622 9.91633 106.671 10.1602 106.666 10.406C106.669 10.7053 106.584 10.9988 106.422 11.2504C106.258 11.489 106.031 11.6774 105.766 11.7948C106.087 11.9045 106.369 12.1053 106.577 12.3726C106.782 12.645 106.891 12.9767 106.888 13.3171C106.894 13.5732 106.843 13.8274 106.74 14.0617C106.636 14.2961 106.482 14.5046 106.289 14.6726C105.903 15.0315 105.393 15.2266 104.866 15.2171L102.322 15.2615ZM103.177 11.4504H104.733C104.878 11.4588 105.024 11.4342 105.159 11.3784C105.293 11.3226 105.414 11.2371 105.511 11.1282C105.699 10.9435 105.807 10.6919 105.811 10.4282C105.821 10.1636 105.73 9.90505 105.555 9.70595C105.462 9.60233 105.347 9.5207 105.218 9.4669C105.089 9.41311 104.95 9.3885 104.811 9.39484H103.211L103.177 11.4504ZM103.177 14.4393H104.911C105.061 14.4443 105.211 14.4161 105.349 14.3565C105.488 14.297 105.611 14.2076 105.711 14.0949C105.903 13.89 106.01 13.62 106.011 13.3393C106.004 13.061 105.893 12.7953 105.7 12.5949C105.592 12.4824 105.463 12.3936 105.319 12.3343C105.176 12.275 105.022 12.2464 104.866 12.2504H103.177V14.4393Z" fill="white" stroke="white" stroke-width="0.2" stroke-miterlimit="10"/>
</g>
<defs>
<linearGradient id="paint0_linear_89_186" x1="24.2224" y1="10.4944" x2="5.57802" y2="29.1388" gradientUnits="userSpaceOnUse">
<stop stop-color="#00A0FF"/>
<stop offset="0.01" stop-color="#00A1FF"/>
<stop offset="0.26" stop-color="#00BEFF"/>
<stop offset="0.51" stop-color="#00D2FF"/>
<stop offset="0.76" stop-color="#00DFFF"/>
<stop offset="1" stop-color="#00E3FF"/>
</linearGradient>
<linearGradient id="paint1_linear_89_186" x1="37.5888" y1="23.0388" x2="10.711" y2="23.0388" gradientUnits="userSpaceOnUse">
<stop stop-color="#FFE000"/>
<stop offset="0.41" stop-color="#FFBD00"/>
<stop offset="0.78" stop-color="#FFA500"/>
<stop offset="1" stop-color="#FF9C00"/>
</linearGradient>
<linearGradient id="paint2_linear_89_186" x1="27.589" y1="25.5947" x2="2.30015" y2="50.8725" gradientUnits="userSpaceOnUse">
<stop stop-color="#FF3A44"/>
<stop offset="1" stop-color="#C31162"/>
</linearGradient>
<linearGradient id="paint3_linear_89_186" x1="8.11125" y1="1.01747" x2="19.4001" y2="12.3064" gradientUnits="userSpaceOnUse">
<stop stop-color="#32A071"/>
<stop offset="0.07" stop-color="#2DA771"/>
<stop offset="0.48" stop-color="#15CF74"/>
<stop offset="0.8" stop-color="#06E775"/>
<stop offset="1" stop-color="#00F076"/>
</linearGradient>
<clipPath id="clip0_89_186">
<rect width="150" height="44.4444" fill="white" transform="translate(0 0.816963)"/>
</clipPath>
</defs>
</svg>
