<svg width="94" height="58" viewBox="0 0 94 58" fill="none" xmlns="http://www.w3.org/2000/svg">
<path d="M29.384 15.972C29.9813 16.0573 30.3867 16.2387 30.6 16.516C30.8347 16.7933 30.952 17.156 30.952 17.604C30.952 19.076 30.1627 19.7587 28.584 19.652L27.464 19.556C26.2053 19.4493 24.9467 19.364 23.688 19.3C22.4507 19.236 21.1493 19.204 19.784 19.204H18.344C18.088 22.3613 17.8213 25.2413 17.544 27.844L23.048 27.748C23.8373 27.748 24.36 27.8867 24.616 28.164C24.8933 28.4413 25.032 28.8147 25.032 29.284C25.032 30.0093 24.8187 30.5853 24.392 31.012C23.9653 31.4173 23.3573 31.62 22.568 31.62H17.096L16.904 32.996C16.456 36.516 15.496 39.0227 14.024 40.516C12.5733 42.0093 10.568 42.756 8.008 42.756C6.55733 42.756 5.224 42.4467 4.008 41.828C2.792 41.188 1.896 40.42 1.32 39.524C1.08533 39.1613 0.968 38.724 0.968 38.212C0.968 37.7 1.08533 37.252 1.32 36.868C1.576 36.484 1.88533 36.292 2.248 36.292C2.504 36.292 2.74933 36.3773 2.984 36.548C3.24 36.7187 3.56 37.0493 3.944 37.54C4.968 38.884 6.23733 39.556 7.752 39.556C8.968 39.556 9.98133 39.0653 10.792 38.084C11.624 37.0813 12.1573 35.5133 12.392 33.38L12.584 31.62H11.048C10.5573 31.62 10.1307 31.4813 9.768 31.204C9.42667 30.9267 9.256 30.532 9.256 30.02C9.256 29.3587 9.42667 28.8573 9.768 28.516C10.1093 28.1533 10.6107 27.972 11.272 27.972C11.8693 27.972 12.456 27.9613 13.032 27.94C13.288 25.5933 13.5653 22.7453 13.864 19.396C11.56 19.6093 9.93867 19.9827 9 20.516C8.06133 21.0493 7.592 21.8387 7.592 22.884C7.592 23.6093 7.80533 24.3027 8.232 24.964C8.36 25.156 8.424 25.348 8.424 25.54C8.424 25.924 8.21067 26.2653 7.784 26.564C7.35733 26.8413 6.87733 26.98 6.344 26.98C5.768 26.98 5.27733 26.8093 4.872 26.468C4.616 26.2547 4.37067 25.8173 4.136 25.156C3.90133 24.4947 3.784 23.7587 3.784 22.948C3.784 20.3027 5.13867 18.3827 7.848 17.188C10.5787 15.9933 14.5573 15.396 19.784 15.396C23.4107 15.396 26.6107 15.588 29.384 15.972ZM41.3248 32.676C41.6021 32.676 41.8154 32.8147 41.9648 33.092C42.1141 33.3693 42.1888 33.7213 42.1888 34.148C42.1888 35.172 41.8794 35.78 41.2608 35.972C39.9808 36.42 38.5728 36.676 37.0368 36.74C36.6314 38.532 35.8314 39.972 34.6368 41.06C33.4421 42.1267 32.0874 42.66 30.5728 42.66C29.2928 42.66 28.1941 42.3507 27.2768 41.732C26.3808 41.1133 25.6981 40.292 25.2288 39.268C24.7594 38.244 24.5247 37.1347 24.5247 35.94C24.5247 34.3187 24.8341 32.8787 25.4528 31.62C26.0714 30.34 26.9248 29.348 28.0128 28.644C29.1008 27.9187 30.3061 27.556 31.6288 27.556C33.2501 27.556 34.5514 28.1213 35.5328 29.252C36.5354 30.3613 37.1221 31.7373 37.2928 33.38C38.2954 33.316 39.4901 33.1027 40.8768 32.74C41.0474 32.6973 41.1968 32.676 41.3248 32.676ZM30.8288 39.268C31.5114 39.268 32.0981 38.9907 32.5888 38.436C33.1008 37.8813 33.4421 37.0813 33.6128 36.036C32.9514 35.588 32.4394 35.0013 32.0768 34.276C31.7354 33.5507 31.5648 32.7827 31.5648 31.972C31.5648 31.6307 31.5968 31.2893 31.6608 30.948H31.5008C30.6474 30.948 29.9328 31.364 29.3568 32.196C28.8021 33.0067 28.5248 34.1587 28.5248 35.652C28.5248 36.8253 28.7488 37.7213 29.1968 38.34C29.6661 38.9587 30.2101 39.268 30.8288 39.268ZM55.7623 32.676C56.0396 32.676 56.2529 32.8147 56.4023 33.092C56.5516 33.3693 56.6263 33.7213 56.6263 34.148C56.6263 35.172 56.3169 35.78 55.6983 35.972C54.4183 36.42 53.0103 36.676 51.4743 36.74C51.0689 38.532 50.2689 39.972 49.0743 41.06C47.8796 42.1267 46.5249 42.66 45.0103 42.66C43.7303 42.66 42.6316 42.3507 41.7143 41.732C40.8183 41.1133 40.1356 40.292 39.6663 39.268C39.1969 38.244 38.9622 37.1347 38.9622 35.94C38.9622 34.3187 39.2716 32.8787 39.8903 31.62C40.5089 30.34 41.3623 29.348 42.4503 28.644C43.5383 27.9187 44.7436 27.556 46.0663 27.556C47.6876 27.556 48.9889 28.1213 49.9703 29.252C50.9729 30.3613 51.5596 31.7373 51.7303 33.38C52.7329 33.316 53.9276 33.1027 55.3143 32.74C55.4849 32.6973 55.6343 32.676 55.7623 32.676ZM45.2663 39.268C45.9489 39.268 46.5356 38.9907 47.0263 38.436C47.5383 37.8813 47.8796 37.0813 48.0503 36.036C47.3889 35.588 46.8769 35.0013 46.5143 34.276C46.1729 33.5507 46.0023 32.7827 46.0023 31.972C46.0023 31.6307 46.0343 31.2893 46.0983 30.948H45.9383C45.0849 30.948 44.3703 31.364 43.7943 32.196C43.2396 33.0067 42.9623 34.1587 42.9623 35.652C42.9623 36.8253 43.1863 37.7213 43.6343 38.34C44.1036 38.9587 44.6476 39.268 45.2663 39.268ZM72.0558 35.364C72.3331 35.364 72.5464 35.492 72.6958 35.748C72.8664 36.004 72.9518 36.356 72.9518 36.804C72.9518 37.6573 72.7491 38.3187 72.3438 38.788C71.4691 39.8547 70.5091 40.772 69.4638 41.54C68.4184 42.2867 67.3838 42.66 66.3598 42.66C64.7384 42.66 63.5011 41.7107 62.6478 39.812C61.7518 40.9427 60.9624 41.7 60.2798 42.084C59.6184 42.468 58.8398 42.66 57.9438 42.66C56.6424 42.66 55.5651 42.18 54.7118 41.22C53.8798 40.2387 53.4638 38.9693 53.4638 37.412C53.4638 35.7053 53.8264 34.1267 54.5518 32.676C55.2771 31.204 56.2691 30.0093 57.5278 29.092C58.8078 28.1533 60.2371 27.5987 61.8158 27.428C62.2211 23.2893 62.9891 19.7587 64.1198 16.836C65.2718 13.892 66.7758 12.42 68.6318 12.42C69.5491 12.42 70.3064 12.836 70.9038 13.668C71.5224 14.5 71.8318 15.7587 71.8318 17.444C71.8318 19.8333 71.2451 22.628 70.0718 25.828C68.8984 29.028 67.3304 32.3133 65.3678 35.684C65.4531 36.9213 65.6344 37.8067 65.9118 38.34C66.2104 38.8733 66.5838 39.14 67.0318 39.14C67.6078 39.14 68.1944 38.884 68.7917 38.372C69.3891 37.86 70.1891 37.0067 71.1918 35.812C71.4478 35.5133 71.7358 35.364 72.0558 35.364ZM68.2798 15.556C67.8744 15.556 67.4691 16.2813 67.0638 17.732C66.6584 19.1613 66.3064 21.0387 66.0078 23.364C65.7304 25.6893 65.5278 28.1213 65.3998 30.66C67.7891 25.4547 68.9838 21.2733 68.9838 18.116C68.9838 17.3053 68.9091 16.676 68.7598 16.228C68.6318 15.78 68.4718 15.556 68.2798 15.556ZM59.0638 39.428C59.4691 39.428 59.8744 39.268 60.2798 38.948C60.6851 38.6067 61.1971 37.988 61.8158 37.092C61.6024 35.94 61.4958 34.6493 61.4958 33.22C61.4958 32.708 61.5171 31.876 61.5598 30.724C60.3864 31.0867 59.4051 31.876 58.6158 33.092C57.8478 34.2867 57.4638 35.62 57.4638 37.092C57.4638 38.6493 57.9971 39.428 59.0638 39.428ZM82.4765 35.364C82.7538 35.364 82.9672 35.492 83.1165 35.748C83.2872 36.004 83.3725 36.356 83.3725 36.804C83.3725 37.6573 83.1698 38.3187 82.7645 38.788C81.8472 39.9187 80.8445 40.8467 79.7565 41.572C78.6898 42.2973 77.4738 42.66 76.1085 42.66C74.2312 42.66 72.8338 41.8067 71.9165 40.1C71.0205 38.3933 70.5725 36.1853 70.5725 33.476C70.5725 30.8733 70.9032 27.908 71.5645 24.58C72.2472 21.252 73.2392 18.3933 74.5405 16.004C75.8632 13.6147 77.4312 12.42 79.2445 12.42C80.2685 12.42 81.0685 12.9 81.6445 13.86C82.2418 14.7987 82.5405 16.1533 82.5405 17.924C82.5405 20.4627 81.8365 23.4067 80.4285 26.756C79.0205 30.1053 77.1112 33.4227 74.7005 36.708C74.8498 37.5827 75.0952 38.212 75.4365 38.596C75.7778 38.9587 76.2258 39.14 76.7805 39.14C77.6552 39.14 78.4232 38.8947 79.0845 38.404C79.7458 37.892 80.5885 37.028 81.6125 35.812C81.8685 35.5133 82.1565 35.364 82.4765 35.364ZM78.5405 15.588C78.0498 15.588 77.4952 16.4733 76.8765 18.244C76.2578 20.0147 75.7138 22.212 75.2445 24.836C74.7752 27.46 74.5192 29.9773 74.4765 32.388C75.9912 29.892 77.1965 27.396 78.0925 24.9C78.9885 22.3827 79.4365 20.0893 79.4365 18.02C79.4365 16.3987 79.1378 15.588 78.5405 15.588ZM91.986 27.588C92.4767 27.588 92.818 27.652 93.01 27.78C93.202 27.908 93.298 28.1213 93.298 28.42C93.298 28.932 93.0207 30.756 92.466 33.892C91.9753 36.9 91.6873 38.6813 91.602 39.236C90.8127 44.7187 89.7247 49.06 88.338 52.26C86.9513 55.46 85.106 57.06 82.802 57.06C81.714 57.06 80.8287 56.7187 80.146 56.036C79.4633 55.3747 79.122 54.5 79.122 53.412C79.122 52.4093 79.346 51.3853 79.794 50.34C80.2633 49.2947 81.1167 48.0893 82.354 46.724C83.6127 45.38 85.3833 43.8333 87.666 42.084L87.762 41.348C87.9113 40.5587 88.082 39.428 88.274 37.956C87.8473 39.492 87.25 40.6653 86.482 41.476C85.714 42.2653 84.9033 42.66 84.05 42.66C83.09 42.66 82.3007 42.2227 81.682 41.348C81.0847 40.452 80.786 39.3427 80.786 38.02C80.786 36.42 80.8927 34.9587 81.106 33.636C81.3193 32.292 81.6713 30.8733 82.162 29.38C82.3753 28.74 82.674 28.2813 83.058 28.004C83.442 27.7267 84.05 27.588 84.882 27.588C85.3513 27.588 85.6713 27.6627 85.842 27.812C86.034 27.9613 86.13 28.1853 86.13 28.484C86.13 28.6547 86.0127 29.2307 85.778 30.212C85.5647 31.0013 85.394 31.716 85.266 32.356C85.0953 33.2307 84.946 34.0733 84.818 34.884C84.69 35.6733 84.626 36.324 84.626 36.836C84.626 37.6467 84.85 38.052 85.298 38.052C85.618 38.052 86.0127 37.732 86.482 37.092C86.9727 36.452 87.4847 35.4813 88.018 34.18C88.5727 32.8787 89.106 31.2787 89.618 29.38C89.7887 28.74 90.0447 28.2813 90.386 28.004C90.7487 27.7267 91.282 27.588 91.986 27.588ZM83.154 53.956C83.6873 53.956 84.2847 53.3373 84.946 52.1C85.6073 50.8627 86.2687 48.804 86.93 45.924C85.2873 47.3107 84.0927 48.5693 83.346 49.7C82.6207 50.852 82.258 51.8547 82.258 52.708C82.258 53.0707 82.322 53.3693 82.45 53.604C82.5993 53.8387 82.834 53.956 83.154 53.956Z" fill="url(#paint0_linear_89_10)"/>
<defs>
<linearGradient id="paint0_linear_89_10" x1="1" y1="16.5" x2="101" y2="87.5" gradientUnits="userSpaceOnUse">
<stop stop-color="#00D76B"/>
<stop offset="1" stop-color="#009148"/>
</linearGradient>
</defs>
</svg>
