<svg width="48" height="48" viewBox="0 0 48 48" fill="none" xmlns="http://www.w3.org/2000/svg">
<path d="M22.3593 0.103172C17.0156 0.825048 12.7968 4.7438 11.6062 10.0782C11.4375 10.8094 11.4093 11.3532 11.3718 14.2219C11.3343 16.9594 11.3437 17.5313 11.4562 17.5313C11.5218 17.5313 11.7937 17.4657 12.0468 17.3907C12.9281 17.1188 14.1937 16.9688 15.5906 16.9688H16.9687V14.4844C16.9687 12.5813 17.0062 11.8219 17.1187 11.2688C18.0093 6.92817 22.6406 4.47192 26.7187 6.17817C28.3406 6.85317 29.8031 8.31567 30.4781 9.93755C30.9468 11.0532 31.0312 11.7469 31.0312 14.4844V16.9688H32.0437C32.5968 16.9688 33.4031 17.0157 33.825 17.0625C34.5187 17.1563 36.0375 17.5032 36.4968 17.6813C36.6656 17.7469 36.675 17.625 36.6281 14.3344C36.5906 11.3438 36.5625 10.8188 36.3937 10.0782C35.8031 7.45317 34.6125 5.33442 32.6812 3.49692C30.9187 1.80942 28.8187 0.712547 26.4281 0.234423C25.5562 0.0562973 23.2312 -0.0187016 22.3593 0.103172Z" fill="#A0A3BD"/>
<path d="M13.2844 19.9313C10.4906 20.4375 7.96875 22.3406 6.68437 24.8906C5.9625 26.3063 5.6625 27.9 5.74687 29.7656C5.87812 32.6438 6.49687 35.0906 7.73437 37.6406C10.5844 43.5188 15.8344 47.2688 22.1156 47.9063C24.6469 48.1594 27.2719 47.8688 29.7656 47.0438C30.8625 46.6875 33.0281 45.6281 34.0219 44.9531C38.6812 41.8219 41.5969 36.975 42.1969 31.3594C42.5344 28.1813 41.7844 25.4625 39.9562 23.2875C38.625 21.7031 36.975 20.6813 34.6969 20.0344C33.9937 19.8375 33.9094 19.8281 24 19.8094C15.6937 19.8 13.8937 19.8188 13.2844 19.9313ZM24.8625 25.5094C26.0531 25.7625 27.1312 26.5781 27.6844 27.6375C28.3875 28.9875 28.3875 30.2438 27.7031 31.5938C27.375 32.2406 26.5312 33.075 25.8937 33.3656L25.4062 33.5906V37.425C25.4062 41.0813 25.3969 41.2781 25.2187 41.625C25.0031 42.0469 24.4687 42.375 24 42.375C23.5312 42.375 22.9969 42.0469 22.7812 41.625C22.6031 41.2781 22.5937 41.0813 22.5937 37.425V33.5906L22.1062 33.3656C21.8344 33.2438 21.375 32.9063 21.0844 32.625C19.3969 30.975 19.3594 28.3594 21 26.7094C22.05 25.65 23.4562 25.2094 24.8625 25.5094Z" fill="#A0A3BD"/>
<path d="M23.3062 28.4437C22.6312 28.8469 22.425 29.5875 22.7812 30.2812C22.9968 30.7031 23.5312 31.0312 24 31.0312C24.7125 31.0312 25.4062 30.3375 25.4062 29.6156C25.4062 29.1844 25.0406 28.6031 24.6375 28.3969C24.1687 28.1625 23.7468 28.1719 23.3062 28.4437Z" fill="#A0A3BD"/>
</svg>
