<svg width="21" height="20" viewBox="0 0 21 20" fill="none" xmlns="http://www.w3.org/2000/svg">
<path d="M9.39253 3.48613C9.80315 2.5025 11.1967 2.50249 11.6073 3.48613L12.7844 6.30582C12.9485 6.69893 13.3087 6.97557 13.7308 7.0327L16.9267 7.46525C17.967 7.60605 18.3378 8.92043 17.5244 9.58414L15.0947 11.5669C14.7403 11.8561 14.5812 12.3215 14.6843 12.7671L15.4587 16.1137C15.7069 17.186 14.5011 17.9987 13.6002 17.3664L11.1893 15.6743C10.7756 15.3839 10.2243 15.3839 9.81054 15.6743L7.39953 17.3665C6.49867 17.9988 5.29292 17.186 5.54104 16.1138L6.31543 12.7671C6.41853 12.3215 6.25937 11.8561 5.90502 11.5669L3.47533 9.58414C2.66201 8.92042 3.03281 7.60606 4.07309 7.46526L7.26902 7.0327C7.69115 6.97557 8.05136 6.69893 8.21546 6.30582L9.39253 3.48613Z" fill="white"/>
</svg>
