<svg width="34" height="35" viewBox="0 0 34 35" fill="none" xmlns="http://www.w3.org/2000/svg">
<g clip-path="url(#clip0_89_115)">
<path d="M15.4129 0.610853C15.1273 0.757124 14.948 0.996478 14.875 1.33556C14.8352 1.48183 14.8086 4.48705 14.8086 8.22363V14.859H17H19.1914L19.1781 8.05741C19.1582 1.40205 19.1582 1.25578 19.0254 1.03637C18.7398 0.551014 18.6867 0.531068 17.0797 0.511122C15.8047 0.497825 15.6121 0.511122 15.4129 0.610853Z" fill="white"/>
<path d="M28.1031 0.610847C27.7777 0.770417 27.6449 1.00977 27.4855 1.73448C27.4125 2.09351 27.2598 2.63206 27.1535 2.91795C27.0473 3.21049 26.9609 3.46979 26.9609 3.49639C26.9609 3.55623 31.9547 6.48166 32.0543 6.48166C32.0941 6.48166 32.207 6.35533 32.3066 6.20241C32.4062 6.04949 32.8113 5.59073 33.2098 5.18516C33.7742 4.59343 33.9336 4.39396 33.9734 4.1945C34.0266 3.88201 33.9203 3.49639 33.7145 3.30358C33.5816 3.17725 29.8762 1.06296 29.0793 0.657389C28.7074 0.471225 28.4086 0.457927 28.1031 0.610847Z" fill="white"/>
<path d="M23.8268 7.30607L21.7881 9.37382L25.8189 11.6078C28.0369 12.8378 29.8564 13.8351 29.8697 13.8285C29.883 13.8218 30.1686 12.6184 30.5072 11.1623C30.8525 9.69961 31.1447 8.4696 31.1514 8.41641C31.1713 8.34992 30.308 7.81138 28.5283 6.76753C27.074 5.91649 25.8787 5.22503 25.8721 5.22503C25.8721 5.23168 24.949 6.16914 23.8268 7.30607Z" fill="white"/>
<path d="M3.57266 6.61464C2.93516 6.80745 2.62969 7.42578 2.89531 7.98427C3.04141 8.29676 3.34023 8.45633 3.98438 8.58266C4.52891 8.68239 5.02031 8.8885 5.39219 9.16109C5.4918 9.23423 5.57812 9.32066 5.57812 9.34061C5.57812 9.36056 5.43867 9.44699 5.27266 9.52677C4.46914 9.91905 3.71211 10.7102 3.26055 11.6278C2.88203 12.3924 2.72266 13.1171 2.72266 14.0745V14.859H7.80273H12.8828L12.8695 11.5879L12.8496 8.31671L12.5906 8.16379C11.8203 7.73827 10.5586 7.49892 9.63555 7.61194C9.02461 7.69173 8.14141 7.98427 7.74961 8.25022L7.49062 8.42309L7.01914 7.96433C6.23555 7.21302 5.49844 6.83405 4.44922 6.64123C3.88477 6.5415 3.81836 6.5415 3.57266 6.61464Z" fill="white"/>
<path d="M21.1172 13.0905V14.859H24.318C27.0074 14.859 27.4988 14.8457 27.3926 14.7726C27.2066 14.6463 21.3695 11.415 21.2301 11.3618C21.1238 11.3219 21.1172 11.4483 21.1172 13.0905Z" fill="white"/>
<path d="M0.517969 16.9933C0.053125 17.2326 0 17.4454 0 19.0145C0 20.5836 0.0464844 20.7631 0.517969 21.0291L0.783594 21.1753H16.9934C33.1168 21.1753 33.2098 21.1753 33.4688 21.0423C33.9469 20.7963 34 20.5969 34 19.0145C34 17.4321 33.9469 17.2326 33.4688 16.9866C33.2098 16.8537 33.1168 16.8537 16.9867 16.8537C0.962891 16.8603 0.763672 16.8603 0.517969 16.9933Z" fill="white"/>
<path d="M2.29121 23.3494C2.31113 23.4558 2.51699 24.9052 2.75605 26.5741C3.10137 29.0274 3.2209 29.7322 3.38691 30.2309C4.07754 32.2986 5.75098 33.8212 7.94238 34.3863C8.36738 34.4993 9.01152 34.506 17.0002 34.506H25.5998L26.151 34.3597C28.2959 33.7879 29.9361 32.272 30.6135 30.2309C30.7795 29.7322 30.899 29.0274 31.2443 26.5741C31.4834 24.9052 31.6893 23.4558 31.7092 23.3494L31.7357 23.1699H17.0002H2.26465L2.29121 23.3494ZM12.3982 25.9823C12.8697 26.235 13.0424 26.7536 12.8299 27.2522C12.5975 27.7775 12.4514 27.824 11.0568 27.824C9.67559 27.824 9.52285 27.7775 9.29707 27.2722C9.1377 26.9198 9.1377 26.8001 9.29043 26.4477C9.52949 25.9225 9.82168 25.8294 11.1896 25.8494C11.9799 25.8627 12.2322 25.8893 12.3982 25.9823ZM18.3748 26.0023C18.9725 26.4477 19.0189 27.1326 18.4943 27.6246C18.3217 27.7908 18.2951 27.7908 17.0799 27.8107C15.9311 27.824 15.8248 27.8174 15.6189 27.6911C15.0346 27.332 14.9814 26.5874 15.4994 26.102C15.7385 25.876 16.024 25.8361 17.1795 25.856C18.0826 25.8693 18.2154 25.8826 18.3748 26.0023ZM24.2916 25.9823C24.7432 26.2283 24.9225 26.7735 24.7166 27.2522C24.4842 27.7775 24.3381 27.824 22.9436 27.824C21.549 27.824 21.4029 27.7775 21.1705 27.2522C21.0178 26.8999 21.0443 26.5807 21.2635 26.2815C21.5357 25.8959 21.8146 25.8294 23.0764 25.8494C23.8799 25.8627 24.1123 25.8893 24.2916 25.9823ZM15.3865 29.9915C15.9842 30.437 16.0307 31.1218 15.5061 31.6138C15.3268 31.78 15.3268 31.78 14.0119 31.78C12.6971 31.78 12.6971 31.78 12.5178 31.6138C12.033 31.1617 12.0264 30.5433 12.5111 30.0912C12.7502 29.8652 13.0357 29.8253 14.1912 29.8452C15.0943 29.8585 15.2271 29.8718 15.3865 29.9915ZM21.31 29.9849C21.974 30.3771 22.0139 31.2415 21.3897 31.6603C21.1772 31.8066 21.1041 31.8133 19.9619 31.8133C18.8994 31.8133 18.74 31.8 18.5674 31.6869C17.9896 31.3013 17.9697 30.4303 18.5275 30.038C18.7799 29.8585 19.0522 29.8253 20.0881 29.8386C20.9514 29.8519 21.1174 29.8718 21.31 29.9849Z" fill="white"/>
</g>
<defs>
<clipPath id="clip0_89_115">
<rect width="34" height="34" fill="white" transform="translate(0 0.539185)"/>
</clipPath>
</defs>
</svg>
