<svg width="18" height="14" viewBox="0 0 18 14" fill="none" xmlns="http://www.w3.org/2000/svg">
<path d="M1.18004 0.714501C1.07436 0.742681 0.972209 0.781428 0.951074 0.802563C0.912327 0.841311 8.56321 8.51685 8.72524 8.60491C8.84853 8.66832 9.15147 8.66832 9.27475 8.60491C9.43679 8.51685 17.0877 0.841311 17.0489 0.802563C17.0278 0.781428 16.9186 0.742681 16.8023 0.714501C16.6157 0.665186 15.7526 0.658141 8.98239 0.661663C2.39178 0.661663 1.34912 0.668708 1.18004 0.714501Z" fill="white"/>
<path d="M0.0634051 1.75707C0.00352251 1.9332 0 2.19034 0 6.99856C0 11.8068 0.00352251 12.0639 0.0634051 12.2365C0.0986301 12.3387 0.1409 12.4232 0.151468 12.4232C0.165558 12.4232 1.39843 11.2009 2.88845 9.71089L5.60078 6.99856L2.88845 4.28623C1.39843 2.79269 0.165558 1.5739 0.151468 1.5739C0.1409 1.5739 0.0986301 1.65844 0.0634051 1.75707Z" fill="white"/>
<path d="M15.1115 4.28623L12.3992 6.99856L15.1115 9.71089C16.6015 11.2009 17.8344 12.4232 17.8485 12.4232C17.8591 12.4232 17.9013 12.3387 17.9365 12.2365C17.9964 12.0639 18 11.8068 18 6.99856C18 2.19034 17.9964 1.9332 17.9365 1.75707C17.9013 1.65844 17.8591 1.5739 17.8485 1.5739C17.8344 1.5739 16.6015 2.79269 15.1115 4.28623Z" fill="white"/>
<path d="M3.61052 10.4683C1.86688 12.2119 0.929898 13.1736 0.951033 13.1947C0.972168 13.2158 1.08137 13.2546 1.19761 13.2828C1.3843 13.3321 2.25084 13.3391 8.99996 13.3391C15.7491 13.3391 16.6156 13.3321 16.8023 13.2828C16.9185 13.2546 17.0277 13.2158 17.0489 13.1947C17.07 13.1736 16.133 12.2119 14.3823 10.4612L11.6806 7.75946L10.8422 8.58725C10.0743 9.34811 9.97921 9.42913 9.72559 9.55594L9.44379 9.69332H8.99996H8.55612L8.27432 9.55594C8.0207 9.42913 7.92207 9.34459 7.16473 8.5943C6.71033 8.14342 6.3299 7.77355 6.31933 7.77355C6.31229 7.77355 5.0935 8.9853 3.61052 10.4683Z" fill="white"/>
</svg>
