<svg width="18" height="18" viewBox="0 0 18 18" fill="none" xmlns="http://www.w3.org/2000/svg">
<path d="M4.27195 0.0529989C2.26824 0.334221 0.654721 1.77549 0.162582 3.72647C0.113368 3.90926 0.0606386 4.20103 0.0395469 4.3768C-0.0131823 4.81269 -0.0131823 13.1861 0.0395469 13.622C0.282101 15.6714 1.74094 17.3376 3.72708 17.8368C3.90987 17.886 4.20516 17.9388 4.3774 17.9598C4.8133 18.0126 13.1867 18.0126 13.6226 17.9598C15.4681 17.7419 17.0113 16.5362 17.6827 14.7926C17.7917 14.5078 17.9183 13.9735 17.9605 13.622C18.0132 13.1861 18.0132 4.81269 17.9605 4.3768C17.7425 2.53127 16.5368 0.988064 14.7932 0.316645C14.5084 0.207671 13.9741 0.0811211 13.6226 0.0389377C13.141 -0.020822 4.69026 -0.00676092 4.27195 0.0529989ZM14.6807 2.34496C15.1342 2.49612 15.4998 2.86171 15.6544 3.3187C15.7282 3.53664 15.7318 3.96551 15.6615 4.19752C15.3732 5.15016 14.2378 5.55793 13.4117 5.00603C12.9266 4.68614 12.67 4.11315 12.7578 3.55422C12.8492 2.99177 13.2324 2.53127 13.7562 2.35199C13.9952 2.27114 14.4487 2.26411 14.6807 2.34496ZM9.77336 4.13073C10.8174 4.30297 11.7384 4.77402 12.4801 5.51926C13.4257 6.46136 13.9214 7.66007 13.9214 8.99939C13.9214 10.3387 13.4257 11.5374 12.4801 12.4795C11.538 13.4251 10.3393 13.9208 9 13.9208C7.66068 13.9208 6.46197 13.4251 5.51987 12.4795C4.57426 11.5374 4.07861 10.3387 4.07861 8.99939C4.07861 7.66007 4.57426 6.46136 5.51987 5.51926C6.24753 4.78808 7.17205 4.31 8.19149 4.13073C8.55356 4.07097 9.40777 4.06745 9.77336 4.13073Z" fill="white"/>
<path d="M14.0233 3.39247C13.8195 3.50144 13.7421 3.80024 13.8652 3.99007C14.1042 4.35566 14.6596 4.19396 14.6596 3.76158C14.6596 3.4452 14.301 3.24131 14.0233 3.39247Z" fill="white"/>
<path d="M8.31815 5.18877C6.48668 5.51921 5.1333 7.13624 5.1333 8.99933C5.1333 11.3862 7.30926 13.2212 9.65395 12.8134C12.2307 12.3635 13.6297 9.54772 12.4345 7.22412C11.6612 5.73012 9.96681 4.88997 8.31815 5.18877Z" fill="white"/>
</svg>
