<svg width="18" height="18" viewBox="0 0 18 18" fill="none" xmlns="http://www.w3.org/2000/svg">
<path d="M4.41504 0.0340441C3.33064 0.171354 2.34131 0.643136 1.55618 1.4001C0.788651 2.13594 0.309827 2.995 0.0774568 4.05475C0.00704152 4.37514 0 4.50541 0 5.25885C0.00704152 6.17425 0.0668945 6.77278 0.246453 7.65297C1.19706 12.3567 4.73542 16.1838 9.36171 17.5111C10.5271 17.8456 11.5903 17.997 12.7768 18.0005C13.4845 18.0005 13.6324 17.9934 13.9457 17.923C15.1886 17.6519 16.2624 16.9689 17.0018 15.9831C17.5686 15.2296 17.9277 14.2438 17.9911 13.2827C18.0193 12.8813 17.9841 12.7299 17.8362 12.5926C17.7376 12.4975 12.0868 10.2161 11.865 10.1809C11.7206 10.1598 11.527 10.2407 11.4214 10.3675C11.3791 10.4238 11.115 11.0329 10.8404 11.7195L10.344 12.9693L10.1116 12.9623C9.98488 12.9588 9.72786 12.9236 9.54126 12.8848C7.24573 12.406 5.47126 10.5682 5.08046 8.27263C5.04173 8.03673 5.01356 7.80084 5.02061 7.75155C5.03117 7.66001 5.09806 7.62833 6.29864 7.15302C7.69286 6.59674 7.76328 6.55449 7.81257 6.26579C7.83369 6.132 7.7492 5.90315 6.66832 3.19921C6.02754 1.59374 5.46774 0.238248 5.42549 0.185437C5.28114 0.00235728 4.99948 -0.0398919 4.41504 0.0340441Z" fill="white"/>
</svg>
