<svg width="18" height="16" viewBox="0 0 18 16" fill="none" xmlns="http://www.w3.org/2000/svg">
<path d="M8.87327 3.46915C4.16572 5.28461 0.270913 6.7975 0.225174 6.82917C0.109069 6.90657 0 7.08601 0 7.20915C0 7.35692 0.0844403 7.53284 0.197027 7.61024C0.253321 7.64894 1.22438 8.0254 2.35729 8.44761C3.4902 8.86629 4.43311 9.22868 4.45422 9.25331C4.47533 9.27442 4.84476 10.432 5.274 11.8252C5.70675 13.2185 6.08322 14.4112 6.11488 14.478C6.14303 14.5414 6.21691 14.6258 6.27673 14.661C6.39987 14.7349 6.64967 14.749 6.76578 14.6856C6.808 14.6645 7.3463 14.2318 7.96905 13.7251C9.32009 12.6204 9.27787 12.6555 9.46083 12.6133C9.74933 12.55 9.80563 12.5817 11.5085 13.8166C14.4921 15.9839 14.2774 15.8361 14.4639 15.8361C14.6609 15.8361 14.7982 15.7482 14.8932 15.5687C14.9846 15.3893 18.0245 0.707247 17.9999 0.562994C17.9576 0.348375 17.7325 0.158385 17.5143 0.161903C17.4686 0.161903 13.5808 1.65016 8.87327 3.46915ZM14.1015 3.441C14.1262 3.46563 14.1437 3.50785 14.1437 3.53951C14.1437 3.57118 12.849 4.79908 11.2693 6.26975C7.42371 9.84087 7.2689 9.98864 7.16687 10.161C7.03317 10.3932 6.9804 10.6255 6.85725 11.5437C6.79392 12.0258 6.72707 12.4233 6.69893 12.4656C6.64615 12.55 6.5019 12.5746 6.41042 12.5148C6.38228 12.4972 6.15358 11.7654 5.90026 10.8893C5.41473 9.19349 5.38659 9.04221 5.50269 8.77481C5.53436 8.70093 5.61176 8.59538 5.67509 8.53556C5.81582 8.40187 13.9291 3.39878 14.0065 3.39878C14.0347 3.39878 14.0769 3.41637 14.1015 3.441Z" fill="white"/>
</svg>
