<svg width="18" height="12" viewBox="0 0 18 12" fill="none" xmlns="http://www.w3.org/2000/svg">
<path d="M6.60024 0.946111C6.50874 0.970746 6.40668 1.01298 6.37149 1.03761C6.22369 1.15022 6.06884 1.30859 6.02309 1.39305C5.96327 1.50918 5.99494 1.54085 6.22017 1.60068C6.56857 1.6957 6.79731 1.8787 6.924 2.17783C7.04718 2.46992 7.11052 3.21599 7.08589 4.09931C7.05773 5.14802 6.96624 5.58088 6.74101 5.77092C6.43836 6.02782 6.03013 5.71461 5.35093 4.69757C4.84768 3.94094 4.40075 3.11041 3.92917 2.04058C3.7145 1.55141 3.5491 1.35082 3.30628 1.28395C3.19718 1.2558 2.72913 1.24876 1.72264 1.2558C0.139008 1.26636 0.117893 1.26988 0.0263939 1.49159C-0.0404707 1.65699 0.00527878 1.80831 0.332563 2.51567C1.29682 4.59903 2.19773 6.2073 3.13736 7.53051C4.78082 9.84966 6.35742 10.8737 8.57802 11.0673C9.35225 11.1342 9.97866 11.099 10.2215 10.9723C10.4186 10.8702 10.4784 10.7189 10.5347 10.1805C10.591 9.61036 10.6332 9.42384 10.767 9.13878C10.9464 8.75519 11.2209 8.63202 11.5553 8.77631C11.689 8.83613 11.8438 8.97338 12.238 9.38865C13.3888 10.5922 13.5366 10.7295 13.8603 10.8843C14.0504 10.9758 14.2474 11.0391 14.4093 11.0638C14.7296 11.113 17.4182 11.1166 17.5836 11.0673C17.9707 10.9582 18.0974 10.5007 17.8722 10.0397C17.6435 9.57868 17.2282 9.086 16.2287 8.09359C15.7044 7.56923 15.2293 7.07302 15.173 6.99208C15.0393 6.78445 15.0357 6.54866 15.1624 6.2812C15.2117 6.17563 15.6551 5.54921 16.1443 4.89112C17.1472 3.54327 17.4745 3.06114 17.7033 2.60365C18.0341 1.93852 18.0834 1.6042 17.8757 1.4212C17.6998 1.26284 17.5308 1.24876 15.7994 1.24876C14.2897 1.24876 14.1806 1.2558 14.0433 1.31915C13.8603 1.40009 13.8111 1.47751 13.5366 2.12856C12.9665 3.46233 12.3436 4.53568 11.6784 5.31343C11.3687 5.67942 11.1822 5.82371 11.0203 5.82371C10.8303 5.82371 10.6473 5.63367 10.5382 5.31694C10.5136 5.24656 10.4925 4.52161 10.4819 3.32508C10.4608 1.50214 10.4573 1.4388 10.3869 1.28043C10.3059 1.10799 10.1863 1.00242 9.98922 0.939073C9.81326 0.879247 6.82547 0.886285 6.60024 0.946111Z" fill="white"/>
</svg>
